PathFileType	4	(X/Y/Z)	/Users/niels/Desktop/University/Third Semester/Perception and Action/Exam/Gymnastics Motion Tracking/Code for Gym Tracking/Analyzed Data/Webcam_Backflip/id4_1_baseline_Sports2D/id4_1_baseline_Sports2D_px_person00.trc
DataRate	CameraRate	NumFrames	NumMarkers	Units	OrigDataRate	OrigDataStartFrame	OrigNumFrames
29.80132450331126	29.80132450331126	12	22	m	29.80132450331126	113	151
Frame#	Time	Hip			RHip			RKnee			RAnkle			RBigToe			RSmallToe			RHeel			LHip			LKnee			LAnkle			LBigToe			LSmallToe			LHeel			Neck			Head			Nose			RShoulder			RElbow			RWrist			LShoulder			LElbow			LWrist		
		X1	Y1	Z1	X2	Y2	Z2	X3	Y3	Z3	X4	Y4	Z4	X5	Y5	Z5	X6	Y6	Z6	X7	Y7	Z7	X8	Y8	Z8	X9	Y9	Z9	X10	Y10	Z10	X11	Y11	Z11	X12	Y12	Z12	X13	Y13	Z13	X14	Y14	Z14	X15	Y15	Z15	X16	Y16	Z16	X17	Y17	Z17	X18	Y18	Z18	X19	Y19	Z19	X20	Y20	Z20	X21	Y21	Z21	X22	Y22	Z22
113	3.7917777777777775	1.1172073846720565	-0.5952996080329463	0.0	1.1164105995689255	-0.5929020451624577	0.0	1.1181733571163426	-0.7004457956638189	0.0	1.1001452233142424	-0.7971943866382143	0.0	1.1214105704486328	-0.8149564289110729	0.0	1.120020725170211	-0.8179496934501777	0.0	1.0940271325576754	-0.8112097706952844	0.0	1.1180005630784733	-0.5914422993609983	0.0	1.1181088681083213	-0.7005098017031398	0.0	1.0998484100697983	-0.7964876697580208	0.0	1.118577806161363	-0.8150060767430058	0.0	1.1147899024104595	-0.8136011161384878	0.0	1.0932915882651562	-0.8079361826226786	0.0	1.1084901070034996	-0.4421719777021477	0.0	1.1257609296061655	-0.3713075172874187	0.0	1.1318072786127236	-0.405151280071938	0.0	1.1059373762985267	-0.4469846149719805	0.0	1.1443304981958455	-0.386936092457338	0.0	1.169743897546629	-0.3245981952854027	0.0	1.108284904128752	-0.4467368524548813	0.0	1.147541056882237	-0.3878153261299475	0.0	1.1751202259065636	-0.328643685621173	0.0
114	3.825333333333333	1.1185724159551633	-0.5900522351280614	0.0	1.1177123169808232	-0.5873005445891288	0.0	1.1195229351105833	-0.6948412937102256	0.0	1.10063717174613	-0.7920968847466446	0.0	1.1228679927860703	-0.8096461813129564	0.0	1.1214309120378894	-0.8128164137201427	0.0	1.0944948079391639	-0.8063136614553458	0.0	1.1195493597794208	-0.5858719449208792	0.0	1.1194309139120184	-0.6947942758806305	0.0	1.1003913211151435	-0.7910735265300903	0.0	1.1207460823927875	-0.810052425141956	0.0	1.1172834928834263	-0.8076937108542749	0.0	1.0934337709417195	-0.8026682848444532	0.0	1.108385637986145	-0.4372921786498974	0.0	1.1261603750134268	-0.3658459946273601	0.0	1.1322212554215958	-0.4000382023909184	0.0	1.1059643422593968	-0.4414328082710054	0.0	1.1442987224793493	-0.3821786704922509	0.0	1.1701308599479794	-0.3202283964630852	0.0	1.108258562155418	-0.4413219690240939	0.0	1.1482389845179082	-0.3830737035714593	0.0	1.1762748465918336	-0.32388293267367596	0.0
115	3.8588888888888886	1.1199859010186286	-0.5834965488736663	0.0	1.1191810580028467	-0.5804554087651806	0.0	1.1209151849319583	-0.6880826764926687	0.0	1.1011885036949123	-0.7860821680530045	0.0	1.1257319593643254	-0.8038886657000415	0.0	1.1238116598100154	-0.8072765884332467	0.0	1.095036658521309	-0.8010291512975429	0.0	1.1209455235277093	-0.5789619677438651	0.0	1.1207349848889456	-0.6877715603549028	0.0	1.1009842558141676	-0.784724851757175	0.0	1.1243120866193579	-0.8046669109022823	0.0	1.121049241428228	-0.8012067199954103	0.0	1.0935554942017713	-0.7966581106483467	0.0	1.1086124681829357	-0.4311590549685247	0.0	1.127382295311594	-0.35875428888619243	0.0	1.1329378558824952	-0.39367764582004877	0.0	1.1066848306763255	-0.434357892214076	0.0	1.144709529408598	-0.37611778845190197	0.0	1.171160333932475	-0.3142694899747422	0.0	1.1082131519617262	-0.4343200087513462	0.0	1.1482272572556071	-0.37682924820556624	0.0	1.1771541646296446	-0.31758669001230644	0.0
116	3.892444444444444	1.1213451128743979	-0.5761875396059936	0.0	1.1207084898359612	-0.5730237673285492	0.0	1.1222229824191956	-0.6809701241416997	0.0	1.1018656312024073	-0.780114743521484	0.0	1.1295553201129624	-0.7985648550410942	0.0	1.1267971853363612	-0.8021197873633458	0.0	1.095705751515118	-0.7960789347067614	0.0	1.1220586880446992	-0.5714284021487956	0.0	1.1218263267014432	-0.6803609727527141	0.0	1.101634937546212	-0.778478462486089	0.0	1.1287503082363866	-0.7995306417345207	0.0	1.1255874639325443	-0.7950706915962212	0.0	1.0937523409470478	-0.7908338573606748	0.0	1.1092369130975477	-0.42430749328559975	0.0	1.1292179023991755	-0.35081987391712666	0.0	1.1339556794400119	-0.38664392270285103	0.0	1.1079043490707219	-0.42663407904515716	0.0	1.1455410486649782	-0.3691609789528355	0.0	1.1725313146073923	-0.30724512834951084	0.0	1.1082418985320632	-0.4265441567916553	0.0	1.147847398625663	-0.3696439636604361	0.0	1.1776950687153858	-0.3103229144083621	0.0
117	3.9259999999999997	1.1225577106228892	-0.568741338367008	0.0	1.12211404103352	-0.5656235403876456	0.0	1.123340703380282	-0.6741791606999914	0.0	1.1026635986407034	-0.7749286489042787	0.0	1.133514203707647	-0.7943743425884958	0.0	1.1297920027896926	-0.797895150483181	0.0	1.0965058129199106	-0.7919388549780682	0.0	1.122934194592472	-0.563968940500263	0.0	1.122609432231196	-0.6733455863228615	0.0	1.1023563993902572	-0.7731294471307849	0.0	1.1331940766818824	-0.7951882636694574	0.0	1.1302152901002562	-0.7898897711799641	0.0	1.0941252358823008	-0.785869806687744	0.0	1.110389972274682	-0.41731559653534395	0.0	1.1312985272720186	-0.3428506418402777	0.0	1.1353452485216697	-0.379612200228369	0.0	1.1094381877262494	-0.41917077052200685	0.0	1.1467714903377602	-0.3616880949021466	0.0	1.1739856337099515	-0.2996245487503427	0.0	1.1086202076145562	-0.41886481060665903	0.0	1.147716537274035	-0.3621835336794675	0.0	1.1779834830847662	-0.30268319672448396	0.0
118	3.9595555555555553	1.1235728271374215	-0.5618521179785441	0.0	1.1232659976684471	-0.5588579842087834	0.0	1.1241981817505262	-0.6682569852298632	0.0	1.1035038750855686	-0.7709269660659179	0.0	1.1368484634389997	-0.7916502772946052	0.0	1.1322882572614128	-0.7948826022900006	0.0	1.0973705375828502	-0.7888209878323011	0.0	1.123681714999082	-0.5572336722183591	0.0	1.1230933858435321	-0.6673326626991735	0.0	1.1031219575235445	-0.769109746648973	0.0	1.1368617429022458	-0.791977723442385	0.0	1.1342678445934018	-0.7859682847993332	0.0	1.0947021904973806	-0.782142795838872	0.0	1.11213310990318	-0.410811027347207	0.0	1.1333405392931477	-0.335583057839771	0.0	1.1371423157762313	-0.3732772821006643	0.0	1.1112028801201008	-0.4127265018204908	0.0	1.1483932949266906	-0.35415499356090013	0.0	1.1754277260342179	-0.2918437831805942	0.0	1.1095261543772845	-0.41208776996203245	0.0	1.1482386038071168	-0.3551265328339868	0.0	1.1780929597829193	-0.2952882586256025	0.0
119	3.993111111111111	1.1244140808599532	-0.5561808309282793	0.0	1.124169195110512	-0.5532876546783804	0.0	1.1247735858280032	-0.663616638740785	0.0	1.1043113850387887	-0.7682344205248887	0.0	1.1391669711136017	-0.7903115921365541	0.0	1.1340653765199853	-0.7931134555356054	0.0	1.098213358110033	-0.7867435037382916	0.0	1.1243287965954774	-0.5517834433785589	0.0	1.1233508838445432	-0.6627594569238735	0.0	1.1038671599902612	-0.7665470217156496	0.0	1.1393159948653004	-0.7900041143255518	0.0	1.1372228086062572	-0.7834657133836563	0.0	1.095386258666269	-0.7798184709745656	0.0	1.1143687636424897	-0.40535719908976164	0.0	1.1353374834304961	-0.32961926798989116	0.0	1.1393242244943462	-0.3681883656934485	0.0	1.1131641701041877	-0.40777217345147293	0.0	1.1503604643551708	-0.34714437391879993	0.0	1.1768167638526807	-0.28441264980853204	0.0	1.1108918428791896	-0.40680340642090745	0.0	1.149460542760873	-0.34907674821860735	0.0	1.1780370590991498	-0.28873659213174807	0.0
120	4.026666666666666	1.1251475406149947	-0.5522318568430981	0.0	1.124931637367778	-0.549387708077082	0.0	1.1250954330459908	-0.6604884705673004	0.0	1.1050442336023165	-0.7667936658780135	0.0	1.1404389757649527	-0.7900860623294625	0.0	1.1351256518389101	-0.7924623145908859	0.0	1.0989697155052507	-0.7856184278629724	0.0	1.1248732360310627	-0.548056201058241	0.0	1.123507753985493	-0.659856615711778	0.0	1.1045494130754836	-0.7653562065230053	0.0	1.1405049161860368	-0.7892034385249219	0.0	1.138871886609341	-0.7823962060805634	0.0	1.0960162127915154	-0.7788394517025977	0.0	1.1168928955760207	-0.40143178879569974	0.0	1.137437971995664	-0.3254024050444715	0.0	1.1418016370033965	-0.3647553812011717	0.0	1.115275124919235	-0.4045778531626236	0.0	1.1525338980550202	-0.34134348614148136	0.0	1.1780440108694383	-0.27798638620497	0.0	1.1125457498353668	-0.4033739178449776	0.0	1.1511592058480087	-0.34458247927469476	0.0	1.1778026788687952	-0.28361197392549586	0.0
121	4.060222222222222	1.1258263013857779	-0.5502892393509006	0.0	1.1256723092164864	-0.5474725627992376	0.0	1.1252378478683904	-0.658950162104168	0.0	1.1056752692925875	-0.7664697599748821	0.0	1.1408408827570984	-0.7907688930705236	0.0	1.1355479472400738	-0.7927824225516825	0.0	1.0996041230037803	-0.7853434275967401	0.0	1.1253847816420035	-0.546330449615804	0.0	1.1237118085893594	-0.6586645576148249	0.0	1.105176641892412	-0.7653361885196989	0.0	1.1406886369605065	-0.7894473638625982	0.0	1.139375074903233	-0.7826152186038353	0.0	1.096479964463025	-0.7789481979145311	0.0	1.1195216950742932	-0.3994124529632455	0.0	1.1397418080506512	-0.32321734156263154	0.0	1.1444416064372667	-0.36328010654298276	0.0	1.1174679536791858	-0.40330583373791573	0.0	1.1547004046261369	-0.33742149971933966	0.0	1.1789792251667335	-0.27332208287544635	0.0	1.1143841902361213	-0.40199565449926383	0.0	1.1529974309697681	-0.34213529183192054	0.0	1.1773963813973334	-0.28049984965774716	0.0
122	4.0937777777777775	1.1265025409049976	-0.5503949982680553	0.0	1.1264558878380722	-0.5476113987869966	0.0	1.1252931771418286	-0.6590222291548923	0.0	1.1062038972781347	-0.7671642988982609	0.0	1.1406524052933258	-0.7923072526028213	0.0	1.1354629550077548	-0.7940065725389929	0.0	1.10012409843528	-0.7859022639556137	0.0	1.125977669667054	-0.5466750979875257	0.0	1.1240585266001335	-0.6591133104564255	0.0	1.105777906678475	-0.7663074982705376	0.0	1.1402962528976686	-0.790661152744609	0.0	1.1391197319003148	-0.7839564733658599	0.0	1.0967708051420748	-0.7798945506457532	0.0	1.1221491875201466	-0.39944687855373856	0.0	1.1422723949560722	-0.3231556655275862	0.0	1.1471277288251507	-0.3638491190426737	0.0	1.1196429626412046	-0.40394958116834895	0.0	1.1566562423331395	-0.3358271879695703	0.0	1.1795611930788015	-0.27106741616587005	0.0	1.1163911645200895	-0.40267724564428853	0.0	1.1547008949685953	-0.34201607290577285	0.0	1.176879871118032	-0.27981001466323857	0.0
123	4.1273333333333335	1.1272402458167403	-0.5523670334468649	0.0	1.1272491657373327	-0.5496148031214158	0.0	1.1253434446950021	-0.6606869156936738	0.0	1.10666472034389	-0.7688986743350047	0.0	1.1402002853047613	-0.7947665855001668	0.0	1.1350680005929599	-0.7961803755041044	0.0	1.1005823483936898	-0.7874262645709422	0.0	1.126737450579968	-0.5489233138308348	0.0	1.124550412322289	-0.6610764789158603	0.0	1.1063658179911584	-0.76821409039002	0.0	1.1397627943754427	-0.7928902444111412	0.0	1.1385482185339844	-0.7863488512970908	0.0	1.0969741777587108	-0.7816203187213301	0.0	1.1246879723538923	-0.40136796823461407	0.0	1.1450032798586693	-0.32504300079683457	0.0	1.1497654668718886	-0.3662372120628866	0.0	1.1216623980642644	-0.4062878464057149	0.0	1.1582906080127242	-0.33663004362880483	0.0	1.1798205366901193	-0.2714616604705191	0.0	1.1185751438481122	-0.4051876789958475	0.0	1.156182654158589	-0.3441144193177069	0.0	1.176376115993275	-0.28147254342092376	0.0
124	4.160888888888889	1.1280587664469863	-0.5558524504603696	0.0	1.1279208907150018	-0.5531032920654464	0.0	1.1254446519321462	-0.6638146751698724	0.0	1.1070845807214305	-0.7717518316593143	0.0	1.139741217986554	-0.798223404681319	0.0	1.1345438783207686	-0.7993913671991182	0.0	1.101029198398141	-0.790093783384138	0.0	1.1276997459776537	-0.5527017068975976	0.0	1.1251249773261023	-0.6643742632895159	0.0	1.106926989446231	-0.7710628952600518	0.0	1.1393724029035304	-0.7962062578417087	0.0	1.1379976736218826	-0.7897718122465106	0.0	1.0972108262525908	-0.784213533042493	0.0	1.1270112865525697	-0.4047563650348953	0.0	1.1478495347943383	-0.3284396609276252	0.0	1.1522555957067249	-0.36996496651666344	0.0	1.1233971773056306	-0.4099360540336162	0.0	1.1596297120257193	-0.33949126115321254	0.0	1.179905627086437	-0.27416016983026203	0.0	1.1208971728170691	-0.40910139166349013	0.0	1.157539587369584	-0.3479260281930967	0.0	1.1760574410028142	-0.2848753420674219	0.0
